####
#
# OBJ File Generated by Meshlab
#
####
# Object cube_bottom_64.obj
#
# Vertices: 386
# Faces: 64
#
####
vn -0.577350 -0.577350 -0.577350
v 0.000000 0.000000 0.000000
vn -0.408248 -0.408248 0.816497
v 0.000000 0.000000 1.000000
vn -0.408248 0.816497 -0.408248
v 0.000000 1.000000 0.000000
vn -0.816497 0.408248 0.408248
v 0.000000 1.000000 1.000000
vn 0.816497 -0.408248 -0.408248
v 1.000000 0.000000 0.000000
vn 0.408248 -0.816497 0.408248
v 1.000000 0.000000 1.000000
vn 0.408248 0.408248 -0.816497
v 1.000000 1.000000 0.000000
vn 0.577350 0.577350 0.577350
v 1.000000 1.000000 1.000000
vn 0.000000 0.000000 -1.000000
v 0.500000 0.500000 0.000000
vn 0.707107 0.000000 -0.707107
v 1.000000 0.500000 0.000000
vn 0.000000 -0.707107 -0.707107
v 0.500000 0.000000 0.000000
vn -0.707107 0.000000 -0.707107
v 0.000000 0.500000 0.000000
vn 0.000000 0.707107 -0.707107
v 0.500000 1.000000 0.000000
vn -1.000000 0.000000 0.000000
v 0.000000 0.500000 0.500000
vn -0.707107 0.707107 0.000000
v 0.000000 1.000000 0.500000
vn -0.707107 -0.707107 0.000000
v 0.000000 0.000000 0.500000
vn -0.707107 0.000000 0.707107
v 0.000000 0.500000 1.000000
vn 0.000000 1.000000 0.000000
v 0.500000 1.000000 0.500000
vn 0.707107 0.707107 0.000000
v 1.000000 1.000000 0.500000
vn 0.000000 0.707107 0.707107
v 0.500000 1.000000 1.000000
vn 1.000000 0.000000 0.000000
v 1.000000 0.500000 0.500000
vn 0.707107 0.000000 0.707107
v 1.000000 0.500000 1.000000
vn 0.707107 -0.707107 0.000000
v 1.000000 0.000000 0.500000
vn 0.000000 -1.000000 0.000000
v 0.500000 0.000000 0.500000
vn 0.000000 -0.707107 0.707107
v 0.500000 0.000000 1.000000
vn 0.000000 0.000000 1.000000
v 0.500000 0.500000 1.000000
vn 0.000000 0.000000 -1.000000
v 0.750000 0.500000 0.000000
vn 0.000000 0.000000 -1.000000
v 0.750000 0.250000 0.000000
vn 0.000000 0.000000 -1.000000
v 0.500000 0.250000 0.000000
vn 0.000000 0.000000 -1.000000
v 0.250000 0.750000 0.000000
vn 0.000000 0.000000 -1.000000
v 0.500000 0.750000 0.000000
vn 0.000000 0.000000 -1.000000
v 0.250000 0.500000 0.000000
vn -1.000000 0.000000 0.000000
v 0.000000 0.750000 0.500000
vn -1.000000 0.000000 0.000000
v 0.000000 0.750000 0.250000
vn -1.000000 0.000000 0.000000
v 0.000000 0.500000 0.250000
vn -1.000000 0.000000 0.000000
v 0.000000 0.250000 0.750000
vn -1.000000 0.000000 0.000000
v 0.000000 0.500000 0.750000
vn -1.000000 0.000000 0.000000
v 0.000000 0.250000 0.500000
vn 0.000000 1.000000 0.000000
v 0.750000 1.000000 0.500000
vn 0.000000 1.000000 0.000000
v 0.750000 1.000000 0.250000
vn 0.000000 1.000000 0.000000
v 0.500000 1.000000 0.250000
vn 0.000000 1.000000 0.000000
v 0.250000 1.000000 0.750000
vn 0.000000 1.000000 0.000000
v 0.500000 1.000000 0.750000
vn 0.000000 1.000000 0.000000
v 0.250000 1.000000 0.500000
vn 1.000000 0.000000 0.000000
v 1.000000 0.750000 0.250000
vn 1.000000 0.000000 0.000000
v 1.000000 0.750000 0.500000
vn 1.000000 0.000000 0.000000
v 1.000000 0.500000 0.250000
vn 1.000000 0.000000 0.000000
v 1.000000 0.500000 0.750000
vn 1.000000 0.000000 0.000000
v 1.000000 0.250000 0.750000
vn 1.000000 0.000000 0.000000
v 1.000000 0.250000 0.500000
vn 0.000000 -1.000000 0.000000
v 0.750000 0.000000 0.250000
vn 0.000000 -1.000000 0.000000
v 0.750000 0.000000 0.500000
vn 0.000000 -1.000000 0.000000
v 0.500000 0.000000 0.250000
vn 0.000000 -1.000000 0.000000
v 0.500000 0.000000 0.750000
vn 0.000000 -1.000000 0.000000
v 0.250000 0.000000 0.750000
vn 0.000000 -1.000000 0.000000
v 0.250000 0.000000 0.500000
vn 0.000000 0.000000 1.000000
v 0.750000 0.250000 1.000000
vn 0.000000 0.000000 1.000000
v 0.750000 0.500000 1.000000
vn 0.000000 0.000000 1.000000
v 0.500000 0.250000 1.000000
vn 0.000000 0.000000 1.000000
v 0.500000 0.750000 1.000000
vn 0.000000 0.000000 1.000000
v 0.250000 0.750000 1.000000
vn 0.000000 0.000000 1.000000
v 0.250000 0.500000 1.000000
vn 0.000000 0.000000 -1.000000
v 0.250000 0.250000 0.000000
vn 0.000000 -0.707107 -0.707107
v 0.250000 0.000000 0.000000
vn 0.000000 0.000000 -1.000000
v 0.750000 0.750000 0.000000
vn 0.707107 0.000000 -0.707107
v 1.000000 0.750000 0.000000
vn 0.707107 0.000000 -0.707107
v 1.000000 0.250000 0.000000
vn 0.000000 -0.707107 -0.707107
v 0.750000 0.000000 0.000000
vn -0.707107 0.000000 -0.707107
v 0.000000 0.250000 0.000000
vn -0.707107 0.000000 -0.707107
v 0.000000 0.750000 0.000000
vn 0.000000 0.707107 -0.707107
v 0.250000 1.000000 0.000000
vn 0.000000 0.707107 -0.707107
v 0.750000 1.000000 0.000000
vn -1.000000 0.000000 0.000000
v 0.000000 0.250000 0.250000
vn -1.000000 0.000000 0.000000
v 0.000000 0.750000 0.750000
vn -0.707107 0.707107 0.000000
v 0.000000 1.000000 0.750000
vn -0.707107 0.707107 0.000000
v 0.000000 1.000000 0.250000
vn -0.707107 -0.707107 0.000000
v 0.000000 0.000000 0.250000
vn -0.707107 -0.707107 0.000000
v 0.000000 0.000000 0.750000
vn -0.707107 0.000000 0.707107
v 0.000000 0.250000 1.000000
vn -0.707107 0.000000 0.707107
v 0.000000 0.750000 1.000000
vn 0.000000 1.000000 0.000000
v 0.250000 1.000000 0.250000
vn 0.000000 1.000000 0.000000
v 0.750000 1.000000 0.750000
vn 0.707107 0.707107 0.000000
v 1.000000 1.000000 0.750000
vn 0.707107 0.707107 0.000000
v 1.000000 1.000000 0.250000
vn 0.000000 0.707107 0.707107
v 0.250000 1.000000 1.000000
vn 0.000000 0.707107 0.707107
v 0.750000 1.000000 1.000000
vn 1.000000 0.000000 0.000000
v 1.000000 0.250000 0.250000
vn 1.000000 0.000000 0.000000
v 1.000000 0.750000 0.750000
vn 0.707107 -0.707107 0.000000
v 1.000000 0.000000 0.250000
vn 0.707107 0.000000 0.707107
v 1.000000 0.750000 1.000000
vn 0.707107 0.000000 0.707107
v 1.000000 0.250000 1.000000
vn 0.707107 -0.707107 0.000000
v 1.000000 0.000000 0.750000
vn 0.000000 -1.000000 0.000000
v 0.250000 0.000000 0.250000
vn 0.000000 -1.000000 0.000000
v 0.750000 0.000000 0.750000
vn 0.000000 -0.707107 0.707107
v 0.750000 0.000000 1.000000
vn 0.000000 -0.707107 0.707107
v 0.250000 0.000000 1.000000
vn 0.000000 0.000000 1.000000
v 0.250000 0.250000 1.000000
vn 0.000000 0.000000 1.000000
v 0.750000 0.750000 1.000000
vn 0.000000 0.000000 -1.000000
v 0.750000 0.375000 0.000000
vn 0.000000 0.000000 -1.000000
v 0.625000 0.250000 0.000000
vn 0.000000 0.000000 -1.000000
v 0.625000 0.375000 0.000000
vn 0.000000 0.000000 -1.000000
v 0.375000 0.750000 0.000000
vn 0.000000 0.000000 -1.000000
v 0.375000 0.625000 0.000000
vn 0.000000 0.000000 -1.000000
v 0.250000 0.625000 0.000000
vn -1.000000 0.000000 0.000000
v 0.000000 0.750000 0.375000
vn -1.000000 0.000000 0.000000
v 0.000000 0.625000 0.250000
vn -1.000000 0.000000 0.000000
v 0.000000 0.625000 0.375000
vn -1.000000 0.000000 0.000000
v 0.000000 0.375000 0.750000
vn -1.000000 0.000000 0.000000
v 0.000000 0.375000 0.625000
vn -1.000000 0.000000 0.000000
v 0.000000 0.250000 0.625000
vn 0.000000 1.000000 0.000000
v 0.750000 1.000000 0.375000
vn 0.000000 1.000000 0.000000
v 0.625000 1.000000 0.250000
vn 0.000000 1.000000 0.000000
v 0.625000 1.000000 0.375000
vn 0.000000 1.000000 0.000000
v 0.375000 1.000000 0.750000
vn 0.000000 1.000000 0.000000
v 0.375000 1.000000 0.625000
vn 0.000000 1.000000 0.000000
v 0.250000 1.000000 0.625000
vn 1.000000 0.000000 0.000000
v 1.000000 0.750000 0.375000
vn 1.000000 0.000000 0.000000
v 1.000000 0.625000 0.375000
vn 1.000000 0.000000 0.000000
v 1.000000 0.625000 0.250000
vn 1.000000 0.000000 0.000000
v 1.000000 0.375000 0.750000
vn 1.000000 0.000000 0.000000
v 1.000000 0.250000 0.625000
vn 1.000000 0.000000 0.000000
v 1.000000 0.375000 0.625000
vn 0.000000 -1.000000 0.000000
v 0.750000 0.000000 0.375000
vn 0.000000 -1.000000 0.000000
v 0.625000 0.000000 0.375000
vn 0.000000 -1.000000 0.000000
v 0.625000 0.000000 0.250000
vn 0.000000 -1.000000 0.000000
v 0.375000 0.000000 0.750000
vn 0.000000 -1.000000 0.000000
v 0.250000 0.000000 0.625000
vn 0.000000 -1.000000 0.000000
v 0.375000 0.000000 0.625000
vn 0.000000 0.000000 1.000000
v 0.750000 0.375000 1.000000
vn 0.000000 0.000000 1.000000
v 0.625000 0.375000 1.000000
vn 0.000000 0.000000 1.000000
v 0.625000 0.250000 1.000000
vn 0.000000 0.000000 1.000000
v 0.375000 0.750000 1.000000
vn 0.000000 0.000000 1.000000
v 0.250000 0.625000 1.000000
vn 0.000000 0.000000 1.000000
v 0.375000 0.625000 1.000000
vn 0.000000 0.000000 -1.000000
v 0.375000 0.250000 0.000000
vn 0.000000 0.000000 -1.000000
v 0.375000 0.125000 0.000000
vn 0.000000 0.000000 -1.000000
v 0.250000 0.125000 0.000000
vn 0.000000 0.000000 -1.000000
v 0.875000 0.750000 0.000000
vn 0.000000 0.000000 -1.000000
v 0.875000 0.625000 0.000000
vn 0.000000 0.000000 -1.000000
v 0.750000 0.625000 0.000000
vn 0.000000 0.000000 -1.000000
v 0.875000 0.250000 0.000000
vn 0.000000 0.000000 -1.000000
v 0.875000 0.125000 0.000000
vn 0.000000 0.000000 -1.000000
v 0.750000 0.125000 0.000000
vn 0.000000 0.000000 -1.000000
v 0.125000 0.375000 0.000000
vn 0.000000 0.000000 -1.000000
v 0.250000 0.375000 0.000000
vn 0.000000 0.000000 -1.000000
v 0.125000 0.250000 0.000000
vn 0.000000 0.000000 -1.000000
v 0.125000 0.875000 0.000000
vn 0.000000 0.000000 -1.000000
v 0.250000 0.875000 0.000000
vn 0.000000 0.000000 -1.000000
v 0.125000 0.750000 0.000000
vn 0.000000 0.000000 -1.000000
v 0.625000 0.875000 0.000000
vn 0.000000 0.000000 -1.000000
v 0.750000 0.875000 0.000000
vn 0.000000 0.000000 -1.000000
v 0.625000 0.750000 0.000000
vn -1.000000 0.000000 0.000000
v 0.000000 0.375000 0.250000
vn -1.000000 0.000000 0.000000
v 0.000000 0.375000 0.125000
vn -1.000000 0.000000 0.000000
v 0.000000 0.250000 0.125000
vn -1.000000 0.000000 0.000000
v 0.000000 0.875000 0.750000
vn -1.000000 0.000000 0.000000
v 0.000000 0.875000 0.625000
vn -1.000000 0.000000 0.000000
v 0.000000 0.750000 0.625000
vn -1.000000 0.000000 0.000000
v 0.000000 0.875000 0.250000
vn -1.000000 0.000000 0.000000
v 0.000000 0.875000 0.125000
vn -1.000000 0.000000 0.000000
v 0.000000 0.750000 0.125000
vn -1.000000 0.000000 0.000000
v 0.000000 0.125000 0.375000
vn -1.000000 0.000000 0.000000
v 0.000000 0.250000 0.375000
vn -1.000000 0.000000 0.000000
v 0.000000 0.125000 0.250000
vn -1.000000 0.000000 0.000000
v 0.000000 0.125000 0.875000
vn -1.000000 0.000000 0.000000
v 0.000000 0.250000 0.875000
vn -1.000000 0.000000 0.000000
v 0.000000 0.125000 0.750000
vn -1.000000 0.000000 0.000000
v 0.000000 0.625000 0.875000
vn -1.000000 0.000000 0.000000
v 0.000000 0.750000 0.875000
vn -1.000000 0.000000 0.000000
v 0.000000 0.625000 0.750000
vn 0.000000 1.000000 0.000000
v 0.375000 1.000000 0.250000
vn 0.000000 1.000000 0.000000
v 0.375000 1.000000 0.125000
vn 0.000000 1.000000 0.000000
v 0.250000 1.000000 0.125000
vn 0.000000 1.000000 0.000000
v 0.875000 1.000000 0.750000
vn 0.000000 1.000000 0.000000
v 0.875000 1.000000 0.625000
vn 0.000000 1.000000 0.000000
v 0.750000 1.000000 0.625000
vn 0.000000 1.000000 0.000000
v 0.875000 1.000000 0.250000
vn 0.000000 1.000000 0.000000
v 0.875000 1.000000 0.125000
vn 0.000000 1.000000 0.000000
v 0.750000 1.000000 0.125000
vn 0.000000 1.000000 0.000000
v 0.125000 1.000000 0.375000
vn 0.000000 1.000000 0.000000
v 0.250000 1.000000 0.375000
vn 0.000000 1.000000 0.000000
v 0.125000 1.000000 0.250000
vn 0.000000 1.000000 0.000000
v 0.125000 1.000000 0.875000
vn 0.000000 1.000000 0.000000
v 0.250000 1.000000 0.875000
vn 0.000000 1.000000 0.000000
v 0.125000 1.000000 0.750000
vn 0.000000 1.000000 0.000000
v 0.625000 1.000000 0.875000
vn 0.000000 1.000000 0.000000
v 0.750000 1.000000 0.875000
vn 0.000000 1.000000 0.000000
v 0.625000 1.000000 0.750000
vn 1.000000 0.000000 0.000000
v 1.000000 0.375000 0.125000
vn 1.000000 0.000000 0.000000
v 1.000000 0.375000 0.250000
vn 1.000000 0.000000 0.000000
v 1.000000 0.250000 0.125000
vn 1.000000 0.000000 0.000000
v 1.000000 0.875000 0.125000
vn 1.000000 0.000000 0.000000
v 1.000000 0.875000 0.250000
vn 1.000000 0.000000 0.000000
v 1.000000 0.750000 0.125000
vn 1.000000 0.000000 0.000000
v 1.000000 0.875000 0.625000
vn 1.000000 0.000000 0.000000
v 1.000000 0.875000 0.750000
vn 1.000000 0.000000 0.000000
v 1.000000 0.750000 0.625000
vn 1.000000 0.000000 0.000000
v 1.000000 0.250000 0.375000
vn 1.000000 0.000000 0.000000
v 1.000000 0.125000 0.375000
vn 1.000000 0.000000 0.000000
v 1.000000 0.125000 0.250000
vn 1.000000 0.000000 0.000000
v 1.000000 0.750000 0.875000
vn 1.000000 0.000000 0.000000
v 1.000000 0.625000 0.875000
vn 1.000000 0.000000 0.000000
v 1.000000 0.625000 0.750000
vn 1.000000 0.000000 0.000000
v 1.000000 0.250000 0.875000
vn 1.000000 0.000000 0.000000
v 1.000000 0.125000 0.875000
vn 1.000000 0.000000 0.000000
v 1.000000 0.125000 0.750000
vn 0.000000 -1.000000 0.000000
v 0.375000 0.000000 0.125000
vn 0.000000 -1.000000 0.000000
v 0.375000 0.000000 0.250000
vn 0.000000 -1.000000 0.000000
v 0.250000 0.000000 0.125000
vn 0.000000 -1.000000 0.000000
v 0.875000 0.000000 0.125000
vn 0.000000 -1.000000 0.000000
v 0.875000 0.000000 0.250000
vn 0.000000 -1.000000 0.000000
v 0.750000 0.000000 0.125000
vn 0.000000 -1.000000 0.000000
v 0.875000 0.000000 0.625000
vn 0.000000 -1.000000 0.000000
v 0.875000 0.000000 0.750000
vn 0.000000 -1.000000 0.000000
v 0.750000 0.000000 0.625000
vn 0.000000 -1.000000 0.000000
v 0.250000 0.000000 0.375000
vn 0.000000 -1.000000 0.000000
v 0.125000 0.000000 0.375000
vn 0.000000 -1.000000 0.000000
v 0.125000 0.000000 0.250000
vn 0.000000 -1.000000 0.000000
v 0.750000 0.000000 0.875000
vn 0.000000 -1.000000 0.000000
v 0.625000 0.000000 0.875000
vn 0.000000 -1.000000 0.000000
v 0.625000 0.000000 0.750000
vn 0.000000 -1.000000 0.000000
v 0.250000 0.000000 0.875000
vn 0.000000 -1.000000 0.000000
v 0.125000 0.000000 0.875000
vn 0.000000 -1.000000 0.000000
v 0.125000 0.000000 0.750000
vn 0.000000 0.000000 1.000000
v 0.375000 0.125000 1.000000
vn 0.000000 0.000000 1.000000
v 0.375000 0.250000 1.000000
vn 0.000000 0.000000 1.000000
v 0.250000 0.125000 1.000000
vn 0.000000 0.000000 1.000000
v 0.875000 0.125000 1.000000
vn 0.000000 0.000000 1.000000
v 0.875000 0.250000 1.000000
vn 0.000000 0.000000 1.000000
v 0.750000 0.125000 1.000000
vn 0.000000 0.000000 1.000000
v 0.875000 0.625000 1.000000
vn 0.000000 0.000000 1.000000
v 0.875000 0.750000 1.000000
vn 0.000000 0.000000 1.000000
v 0.750000 0.625000 1.000000
vn 0.000000 0.000000 1.000000
v 0.250000 0.375000 1.000000
vn 0.000000 0.000000 1.000000
v 0.125000 0.375000 1.000000
vn 0.000000 0.000000 1.000000
v 0.125000 0.250000 1.000000
vn 0.000000 0.000000 1.000000
v 0.750000 0.875000 1.000000
vn 0.000000 0.000000 1.000000
v 0.625000 0.875000 1.000000
vn 0.000000 0.000000 1.000000
v 0.625000 0.750000 1.000000
vn 0.000000 0.000000 1.000000
v 0.250000 0.875000 1.000000
vn 0.000000 0.000000 1.000000
v 0.125000 0.875000 1.000000
vn 0.000000 0.000000 1.000000
v 0.125000 0.750000 1.000000
vn 0.000000 0.000000 -1.000000
v 0.625000 0.500000 0.000000
vn 0.000000 0.000000 -1.000000
v 0.500000 0.375000 0.000000
vn 0.000000 0.000000 -1.000000
v 0.875000 0.500000 0.000000
vn 0.000000 0.000000 -1.000000
v 0.875000 0.375000 0.000000
vn 0.000000 0.000000 -1.000000
v 0.625000 0.125000 0.000000
vn 0.000000 0.000000 -1.000000
v 0.500000 0.125000 0.000000
vn 0.000000 0.000000 -1.000000
v 0.125000 0.625000 0.000000
vn 0.000000 0.000000 -1.000000
v 0.125000 0.500000 0.000000
vn 0.000000 0.000000 -1.000000
v 0.375000 0.875000 0.000000
vn 0.000000 0.000000 -1.000000
v 0.500000 0.875000 0.000000
vn 0.000000 0.000000 -1.000000
v 0.500000 0.625000 0.000000
vn 0.000000 0.000000 -1.000000
v 0.375000 0.500000 0.000000
vn -1.000000 0.000000 0.000000
v 0.000000 0.625000 0.500000
vn -1.000000 0.000000 0.000000
v 0.000000 0.500000 0.375000
vn -1.000000 0.000000 0.000000
v 0.000000 0.875000 0.500000
vn -1.000000 0.000000 0.000000
v 0.000000 0.875000 0.375000
vn -1.000000 0.000000 0.000000
v 0.000000 0.625000 0.125000
vn -1.000000 0.000000 0.000000
v 0.000000 0.500000 0.125000
vn -1.000000 0.000000 0.000000
v 0.000000 0.125000 0.625000
vn -1.000000 0.000000 0.000000
v 0.000000 0.125000 0.500000
vn -1.000000 0.000000 0.000000
v 0.000000 0.375000 0.875000
vn -1.000000 0.000000 0.000000
v 0.000000 0.500000 0.875000
vn -1.000000 0.000000 0.000000
v 0.000000 0.500000 0.625000
vn -1.000000 0.000000 0.000000
v 0.000000 0.375000 0.500000
vn 0.000000 1.000000 0.000000
v 0.625000 1.000000 0.500000
vn 0.000000 1.000000 0.000000
v 0.500000 1.000000 0.375000
vn 0.000000 1.000000 0.000000
v 0.875000 1.000000 0.500000
vn 0.000000 1.000000 0.000000
v 0.875000 1.000000 0.375000
vn 0.000000 1.000000 0.000000
v 0.625000 1.000000 0.125000
vn 0.000000 1.000000 0.000000
v 0.500000 1.000000 0.125000
vn 0.000000 1.000000 0.000000
v 0.125000 1.000000 0.625000
vn 0.000000 1.000000 0.000000
v 0.125000 1.000000 0.500000
vn 0.000000 1.000000 0.000000
v 0.375000 1.000000 0.875000
vn 0.000000 1.000000 0.000000
v 0.500000 1.000000 0.875000
vn 0.000000 1.000000 0.000000
v 0.500000 1.000000 0.625000
vn 0.000000 1.000000 0.000000
v 0.375000 1.000000 0.500000
vn 1.000000 0.000000 0.000000
v 1.000000 0.625000 0.125000
vn 1.000000 0.000000 0.000000
v 1.000000 0.500000 0.125000
vn 1.000000 0.000000 0.000000
v 1.000000 0.875000 0.375000
vn 1.000000 0.000000 0.000000
v 1.000000 0.875000 0.500000
vn 1.000000 0.000000 0.000000
v 1.000000 0.625000 0.500000
vn 1.000000 0.000000 0.000000
v 1.000000 0.500000 0.375000
vn 1.000000 0.000000 0.000000
v 1.000000 0.500000 0.625000
vn 1.000000 0.000000 0.000000
v 1.000000 0.375000 0.500000
vn 1.000000 0.000000 0.000000
v 1.000000 0.500000 0.875000
vn 1.000000 0.000000 0.000000
v 1.000000 0.375000 0.875000
vn 1.000000 0.000000 0.000000
v 1.000000 0.125000 0.625000
vn 1.000000 0.000000 0.000000
v 1.000000 0.125000 0.500000
vn 0.000000 -1.000000 0.000000
v 0.625000 0.000000 0.125000
vn 0.000000 -1.000000 0.000000
v 0.500000 0.000000 0.125000
vn 0.000000 -1.000000 0.000000
v 0.875000 0.000000 0.375000
vn 0.000000 -1.000000 0.000000
v 0.875000 0.000000 0.500000
vn 0.000000 -1.000000 0.000000
v 0.625000 0.000000 0.500000
vn 0.000000 -1.000000 0.000000
v 0.500000 0.000000 0.375000
vn 0.000000 -1.000000 0.000000
v 0.500000 0.000000 0.625000
vn 0.000000 -1.000000 0.000000
v 0.375000 0.000000 0.500000
vn 0.000000 -1.000000 0.000000
v 0.500000 0.000000 0.875000
vn 0.000000 -1.000000 0.000000
v 0.375000 0.000000 0.875000
vn 0.000000 -1.000000 0.000000
v 0.125000 0.000000 0.625000
vn 0.000000 -1.000000 0.000000
v 0.125000 0.000000 0.500000
vn 0.000000 0.000000 1.000000
v 0.625000 0.125000 1.000000
vn 0.000000 0.000000 1.000000
v 0.500000 0.125000 1.000000
vn 0.000000 0.000000 1.000000
v 0.875000 0.375000 1.000000
vn 0.000000 0.000000 1.000000
v 0.875000 0.500000 1.000000
vn 0.000000 0.000000 1.000000
v 0.625000 0.500000 1.000000
vn 0.000000 0.000000 1.000000
v 0.500000 0.375000 1.000000
vn 0.000000 0.000000 1.000000
v 0.500000 0.625000 1.000000
vn 0.000000 0.000000 1.000000
v 0.375000 0.500000 1.000000
vn 0.000000 0.000000 1.000000
v 0.500000 0.875000 1.000000
vn 0.000000 0.000000 1.000000
v 0.375000 0.875000 1.000000
vn 0.000000 0.000000 1.000000
v 0.125000 0.625000 1.000000
vn 0.000000 0.000000 1.000000
v 0.125000 0.500000 1.000000
vn 0.000000 0.000000 -1.000000
v 0.125000 0.125000 0.000000
vn 0.000000 -0.707107 -0.707107
v 0.125000 0.000000 0.000000
vn 0.000000 0.000000 -1.000000
v 0.375000 0.375000 0.000000
vn 0.000000 -0.707107 -0.707107
v 0.375000 0.000000 0.000000
vn 0.000000 0.000000 -1.000000
v 0.625000 0.625000 0.000000
vn 0.000000 0.000000 -1.000000
v 0.875000 0.875000 0.000000
vn 0.707107 0.000000 -0.707107
v 1.000000 0.875000 0.000000
vn 0.707107 0.000000 -0.707107
v 1.000000 0.625000 0.000000
vn 0.000000 -0.707107 -0.707107
v 0.625000 0.000000 0.000000
vn 0.707107 0.000000 -0.707107
v 1.000000 0.375000 0.000000
vn 0.707107 0.000000 -0.707107
v 1.000000 0.125000 0.000000
vn 0.000000 -0.707107 -0.707107
v 0.875000 0.000000 0.000000
vn -0.707107 0.000000 -0.707107
v 0.000000 0.125000 0.000000
vn -0.707107 0.000000 -0.707107
v 0.000000 0.375000 0.000000
vn -0.707107 0.000000 -0.707107
v 0.000000 0.625000 0.000000
vn -0.707107 0.000000 -0.707107
v 0.000000 0.875000 0.000000
vn 0.000000 0.707107 -0.707107
v 0.125000 1.000000 0.000000
vn 0.000000 0.707107 -0.707107
v 0.375000 1.000000 0.000000
vn 0.000000 0.707107 -0.707107
v 0.625000 1.000000 0.000000
vn 0.000000 0.707107 -0.707107
v 0.875000 1.000000 0.000000
vn -1.000000 0.000000 0.000000
v 0.000000 0.125000 0.125000
vn -1.000000 0.000000 0.000000
v 0.000000 0.375000 0.375000
vn -1.000000 0.000000 0.000000
v 0.000000 0.625000 0.625000
vn -1.000000 0.000000 0.000000
v 0.000000 0.875000 0.875000
vn -0.707107 0.707107 0.000000
v 0.000000 1.000000 0.875000
vn -0.707107 0.707107 0.000000
v 0.000000 1.000000 0.625000
vn -0.707107 0.707107 0.000000
v 0.000000 1.000000 0.375000
vn -0.707107 0.707107 0.000000
v 0.000000 1.000000 0.125000
vn -0.707107 -0.707107 0.000000
v 0.000000 0.000000 0.125000
vn -0.707107 -0.707107 0.000000
v 0.000000 0.000000 0.375000
vn -0.707107 -0.707107 0.000000
v 0.000000 0.000000 0.625000
vn -0.707107 -0.707107 0.000000
v 0.000000 0.000000 0.875000
vn -0.707107 0.000000 0.707107
v 0.000000 0.125000 1.000000
vn -0.707107 0.000000 0.707107
v 0.000000 0.375000 1.000000
vn -0.707107 0.000000 0.707107
v 0.000000 0.625000 1.000000
vn -0.707107 0.000000 0.707107
v 0.000000 0.875000 1.000000
vn 0.000000 1.000000 0.000000
v 0.125000 1.000000 0.125000
vn 0.000000 1.000000 0.000000
v 0.375000 1.000000 0.375000
vn 0.000000 1.000000 0.000000
v 0.625000 1.000000 0.625000
vn 0.000000 1.000000 0.000000
v 0.875000 1.000000 0.875000
vn 0.707107 0.707107 0.000000
v 1.000000 1.000000 0.875000
vn 0.707107 0.707107 0.000000
v 1.000000 1.000000 0.625000
vn 0.707107 0.707107 0.000000
v 1.000000 1.000000 0.375000
vn 0.707107 0.707107 0.000000
v 1.000000 1.000000 0.125000
vn 0.000000 0.707107 0.707107
v 0.125000 1.000000 1.000000
vn 0.000000 0.707107 0.707107
v 0.375000 1.000000 1.000000
vn 0.000000 0.707107 0.707107
v 0.625000 1.000000 1.000000
vn 0.000000 0.707107 0.707107
v 0.875000 1.000000 1.000000
vn 1.000000 0.000000 0.000000
v 1.000000 0.125000 0.125000
vn 1.000000 0.000000 0.000000
v 1.000000 0.375000 0.375000
vn 1.000000 0.000000 0.000000
v 1.000000 0.625000 0.625000
vn 1.000000 0.000000 0.000000
v 1.000000 0.875000 0.875000
vn 0.707107 -0.707107 0.000000
v 1.000000 0.000000 0.125000
vn 0.707107 -0.707107 0.000000
v 1.000000 0.000000 0.375000
vn 0.707107 0.000000 0.707107
v 1.000000 0.875000 1.000000
vn 0.707107 0.000000 0.707107
v 1.000000 0.625000 1.000000
vn 0.707107 -0.707107 0.000000
v 1.000000 0.000000 0.625000
vn 0.707107 0.000000 0.707107
v 1.000000 0.375000 1.000000
vn 0.707107 0.000000 0.707107
v 1.000000 0.125000 1.000000
vn 0.707107 -0.707107 0.000000
v 1.000000 0.000000 0.875000
vn 0.000000 -1.000000 0.000000
v 0.125000 0.000000 0.125000
vn 0.000000 -1.000000 0.000000
v 0.375000 0.000000 0.375000
vn 0.000000 -1.000000 0.000000
v 0.625000 0.000000 0.625000
vn 0.000000 -1.000000 0.000000
v 0.875000 0.000000 0.875000
vn 0.000000 -0.707107 0.707107
v 0.875000 0.000000 1.000000
vn 0.000000 -0.707107 0.707107
v 0.625000 0.000000 1.000000
vn 0.000000 -0.707107 0.707107
v 0.375000 0.000000 1.000000
vn 0.000000 -0.707107 0.707107
v 0.125000 0.000000 1.000000
vn 0.000000 0.000000 1.000000
v 0.125000 0.125000 1.000000
vn 0.000000 0.000000 1.000000
v 0.375000 0.375000 1.000000
vn 0.000000 0.000000 1.000000
v 0.625000 0.625000 1.000000
vn 0.000000 0.000000 1.000000
v 0.875000 0.875000 1.000000
# 386 vertices, 0 vertices normals

f 315//315 137//137 316//316
f 136//136 248//248 318//318
f 247//247 143//143 323//323
f 142//142 325//325 326//326
f 343//343 164//164 335//335
f 344//344 262//262 162//162
f 345//345 167//167 261//261
f 346//346 347//347 165//165
f 363//363 200//200 367//367
f 199//199 290//290 368//368
f 289//289 206//206 371//371
f 205//205 373//373 374//374
f 382//382 227//227 383//383
f 381//381 304//304 225//225
f 380//380 230//230 303//303
f 379//379 373//373 228//228
f 137//137 136//136 64//64
f 143//143 142//142 68//68
f 77//77 162//162 164//164
f 78//78 165//165 167//167
f 200//200 199//199 89//89
f 206//206 205//205 92//92
f 96//96 225//225 227//227
f 95//95 228//228 230//230
f 248//248 247//247 11//11
f 16//16 261//261 262//262
f 290//290 289//289 23//23
f 25//25 303//303 304//304
f 1//1 315//315 316//316
f 316//316 137//137 64//64
f 64//64 136//136 318//318
f 318//318 248//248 11//11
f 11//11 247//247 323//323
f 323//323 143//143 68//68
f 68//68 142//142 326//326
f 326//326 325//325 5//5
f 1//1 327//327 315//315
f 1//1 335//335 327//327
f 1//1 343//343 335//335
f 343//343 77//77 164//164
f 77//77 344//344 162//162
f 344//344 16//16 262//262
f 16//16 345//345 261//261
f 345//345 78//78 167//167
f 78//78 346//346 165//165
f 346//346 2//2 347//347
f 5//5 325//325 363//363
f 5//5 363//363 367//367
f 367//367 200//200 89//89
f 89//89 199//199 368//368
f 368//368 290//290 23//23
f 23//23 289//289 371//371
f 371//371 206//206 92//92
f 92//92 205//205 374//374
f 374//374 373//373 6//6
f 2//2 382//382 383//383
f 382//382 96//96 227//227
f 96//96 381//381 225//225
f 381//381 25//25 304//304
f 25//25 380//380 303//303
f 380//380 95//95 230//230
f 95//95 379//379 228//228
f 379//379 6//6 373//373
f 2//2 383//383 347//347
# 64 faces, 0 coords texture

# End of File